<svg id="Conduce" xmlns="http://www.w3.org/2000/svg" viewBox="0 0 383.44 188.47"><title>conduce</title><path d="M28.15,116.36C12.1,116.36,0,104.22,0,88.11V88C0,71.78,12.27,59.57,28.55,59.57c7.51,0,13.35,1.91,18.95,6.19a5,5,0,0,1,2,4,5.12,5.12,0,0,1-8.14,4,19.79,19.79,0,0,0-12.89-4.82c-10.13,0-17.78,8.11-17.78,18.87V88c0,10.8,7.64,18.94,17.78,18.94,5.22,0,9.13-1.49,13.5-5.13a4.69,4.69,0,0,1,3.09-1.15A4.75,4.75,0,0,1,48.22,109,28.6,28.6,0,0,1,28.15,116.36Zm96.14-38.09A4.72,4.72,0,0,1,129,73.45a4.8,4.8,0,0,1,4.83,4.82v2.05c2.69-3.87,6.57-7.27,13-7.27,9.41,0,14.87,6.33,14.87,16v22.31a4.65,4.65,0,0,1-4.74,4.74,4.72,4.72,0,0,1-4.82-4.74V92c0-6.5-3.25-10.21-8.94-10.21-5.53,0-9.41,3.87-9.41,10.36v19.21a4.78,4.78,0,0,1-9.56,0Zm94.46,31.78a4.79,4.79,0,0,1-9.58,0v-2.6c-3.09,4.35-7.44,7.82-14.24,7.82-9.79,0-19.38-7.82-19.38-21.66v-.15c0-13.85,9.42-21.68,19.38-21.68,6.88,0,11.23,3.4,14.24,7.35V61a4.79,4.79,0,0,1,9.58,0Zm-33.53-16.6v.15c0,8.07,5.52,13.36,12,13.36s12.09-5.38,12.09-13.36v-.15c0-8.07-5.69-13.37-12.09-13.37C190.68,80.09,185.23,85.14,185.23,93.46Zm88.41,16.6a4.83,4.83,0,0,1-9.66,0v-2.14c-2.68,4-6.55,7.36-13,7.36-9.42,0-14.86-6.32-14.86-16V77a4.78,4.78,0,1,1,9.57,0V96.37c0,6.49,3.23,10.12,8.94,10.12,5.53,0,9.4-3.8,9.4-10.29V77a4.83,4.83,0,1,1,9.66,0Zm15.43-16.28v-.16a21.55,21.55,0,0,1,21.74-21.83A21.11,21.11,0,0,1,325.44,77a4.53,4.53,0,0,1,1.5,3.32,4.36,4.36,0,0,1-4.43,4.35,4.81,4.81,0,0,1-2.84-.95,13.27,13.27,0,0,0-8.94-3.54c-7,0-12.1,6-12.1,13.28v.15c0,7.44,5.14,13.36,12.5,13.36a13.94,13.94,0,0,0,9.33-3.71,4,4,0,0,1,6.72,3.16,3.73,3.73,0,0,1-1.36,3c-3.71,3.56-8.21,5.93-15.17,5.93A21.31,21.31,0,0,1,289.06,93.77Zm72.36,21.58c-12.1,0-21.43-8.77-21.43-21.66v-.17c0-11.93,8.46-21.74,20.4-21.74,13.28,0,19.84,10.92,19.84,20.56a4.46,4.46,0,0,1-4.49,4.59H349.57c1,6.81,5.85,10.6,12,10.6a15,15,0,0,0,9.88-3.64,3.57,3.57,0,0,1,2.45-.87,3.77,3.77,0,0,1,3.81,3.87,4.16,4.16,0,0,1-1.27,2.93A21.4,21.4,0,0,1,361.42,115.35Zm9.48-24.74c-.63-6.18-4.26-11-10.59-11-5.87,0-10,4.51-10.84,11ZM64.38,94.43v-.17c0-11.94,9.49-21.82,22.31-21.82s22.22,9.73,22.22,21.67v.15c0,11.87-9.49,21.75-22.38,21.75C73.79,116,64.38,106.29,64.38,94.43Zm35,0v-.17c0-7.35-5.3-13.44-12.82-13.44-7.67,0-12.57,6-12.57,13.29v.15c0,7.29,5.3,13.38,12.74,13.38C94.44,107.64,99.34,101.63,99.34,94.43ZM76.65,9.87V9.8a10,10,0,0,1,20-.07V9.8a9.8,9.8,0,0,1-10,9.77A9.69,9.69,0,0,1,76.65,9.87Zm15.69,0V9.8a5.8,5.8,0,0,0-5.76-6c-3.44,0-5.64,2.7-5.64,6V9.8a5.77,5.77,0,0,0,5.71,6A5.62,5.62,0,0,0,92.35,9.87ZM96.64,178.6v.08a10,10,0,0,1-20,.07v-.07a10,10,0,0,1,20-.08Zm-15.69,0v.08a5.79,5.79,0,0,0,5.75,6,5.63,5.63,0,0,0,5.65-6v-.07a5.78,5.78,0,0,0-5.71-6A5.63,5.63,0,0,0,80.94,178.6Zm68-145.44v.08a10,10,0,0,1-20,.07v-.07a9.81,9.81,0,0,1,10-9.76A9.69,9.69,0,0,1,148.93,33.16Zm-15.69,0v.08a5.8,5.8,0,0,0,5.76,6c3.44,0,5.64-2.7,5.64-6v-.07a5.77,5.77,0,0,0-5.71-6A5.62,5.62,0,0,0,133.24,33.16Zm-88.89,122v.08a9.8,9.8,0,0,1-10,9.79,9.71,9.71,0,0,1-10-9.72v-.07a9.8,9.8,0,0,1,10-9.77A9.71,9.71,0,0,1,44.34,155.13Zm-15.7,0v.08a5.79,5.79,0,0,0,5.75,6,5.63,5.63,0,0,0,5.65-6v-.07a5.78,5.78,0,0,0-5.71-6A5.63,5.63,0,0,0,28.64,155.13Zm-4.3-121.8v-.08a9.8,9.8,0,0,1,10-9.8,9.71,9.71,0,0,1,10,9.73v.07A9.81,9.81,0,0,1,34.28,43,9.69,9.69,0,0,1,24.35,33.33Zm15.7,0v-.08a5.8,5.8,0,0,0-5.76-6c-3.44,0-5.65,2.7-5.65,6v.07a5.77,5.77,0,0,0,5.71,6A5.63,5.63,0,0,0,40,33.33ZM148.94,155.16v.08a10,10,0,0,1-20,0v-.07a10,10,0,0,1,20,0Zm-15.7,0v.07a5.79,5.79,0,0,0,5.74,6c3.44,0,5.65-2.69,5.66-5.95v-.07a5.79,5.79,0,0,0-5.7-6A5.64,5.64,0,0,0,133.24,155.13ZM87.55,32.68H85.74V53.37h1.81Zm0,102.42H85.74v20.69h1.81Zm35.84-85-1.28-1.28L107.95,63l1.28,1.28ZM65.32,125.53,64,124.24,49.9,138.39l1.28,1.28Zm.12-62.47L51.17,48.79l-1.28,1.28L64.16,64.34Zm58,75.33-14.26-14.26-1.28,1.28,14.26,14.26Z"/></svg>